<svg width="71" height="76" viewBox="0 0 71 76" fill="none" xmlns="http://www.w3.org/2000/svg">
<g filter="url(#filter0_d_6_42)">
<path fill-rule="evenodd" clip-rule="evenodd" d="M31.7498 2.41326C29.2497 3.67095 23.9793 6.11953 21.1242 8.07282C18.2691 10.0262 18.6241 11.8459 17.374 13.1036C16.124 14.3613 12.3738 17.5055 9.87363 19.392C7.37349 21.2785 7.99853 26.3092 7.37349 28.1958C6.74846 30.0823 5.49839 34.4842 4.87336 36.3707C4.24832 38.2572 6.12342 40.7726 7.37349 43.288C8.62356 45.8033 11.7487 52.7206 12.9988 55.236C14.2489 57.7513 17.9991 56.4936 21.1242 59.009C24.2494 61.5244 28.6246 64.6686 31.7498 66.5551C34.875 68.4417 36.125 68.4417 39.2502 66.5551C42.3754 64.6686 46.7506 61.5244 49.8758 59.009C53.001 56.4936 56.7512 57.7513 58.0012 55.236C59.2513 52.7206 62.3765 45.8033 63.6265 43.288C64.8766 40.7726 66.7517 38.2572 66.1267 36.3707C65.5016 34.4842 64.2516 30.0823 63.6265 28.1958C63.0015 26.3092 63.6265 21.2785 61.1264 19.392C58.6263 17.5055 55.7242 15.1034 53.626 13.1036C51.5279 11.1038 52.3759 9.95939 49.8758 8.07282C47.3756 6.18631 41.7504 3.67095 39.2502 2.41326C36.7501 1.15558 34.25 1.15558 31.7498 2.41326V2.41326Z" fill="white"/>
</g>
<path fill-rule="evenodd" clip-rule="evenodd" d="M22.922 13.3239L34.6201 21.3126C34.8841 21.4885 35.1925 21.5848 35.509 21.5902C35.826 21.5879 36.1352 21.4913 36.398 21.3126L48.105 13.297C48.5599 12.9711 48.8107 12.4279 48.7651 11.8675C48.7195 11.307 48.3842 10.8123 47.8828 10.5654L36.1846 4.77085C35.7408 4.55543 35.2238 4.55543 34.7801 4.77085L23.1175 10.5654C22.607 10.8136 22.2673 11.3179 22.2269 11.8875C22.1865 12.4572 22.4517 13.0051 22.922 13.3239ZM39.4825 23.8203C39.4834 24.3501 39.7426 24.8456 40.1759 25.1457L49.5539 31.5583C50.1543 31.9724 50.9575 31.9206 51.5006 31.4329L59.3676 24.3935C59.7182 24.0801 59.9129 23.6262 59.8991 23.1542C59.8854 22.6822 59.6647 22.2406 59.2965 21.9485L51.7851 15.939C51.2392 15.5051 50.4775 15.4761 49.9006 15.8673L40.1759 22.5217C39.7503 22.8164 39.4921 23.3001 39.4825 23.8203V23.8203ZM16.1573 32.5434C16.5363 32.884 16.7312 33.3865 16.6818 33.8958C16.6325 34.4081 16.3368 34.8633 15.8906 35.1138L10.2904 38.4723C9.72272 38.8118 9.00595 38.7628 8.48893 38.3493C7.97191 37.9357 7.76203 37.2435 7.96144 36.6094L10.0326 30.0895C10.1951 29.5729 10.607 29.1748 11.126 29.0327C11.6446 28.8816 12.204 29.0141 12.6016 29.3819L16.1573 32.5434ZM46.5316 33.2241L36.4069 26.2921C35.8687 25.9299 35.1671 25.9299 34.629 26.2921L24.5042 33.2241C24.1015 33.503 23.8464 33.9511 23.8108 34.4421C23.7846 34.9366 23.9804 35.4167 24.3442 35.7497L34.4601 44.8042C34.7518 45.0645 35.1282 45.2079 35.5179 45.2072C35.9074 45.2071 36.2836 45.0638 36.5758 44.8042L46.6916 35.7497C47.0564 35.4181 47.2498 34.936 47.2161 34.4421C47.1878 33.9511 46.935 33.5012 46.5316 33.2241V33.2241ZM19.5263 31.4329L11.6682 24.3935C11.3147 24.0721 11.1195 23.6101 11.1349 23.1306C11.1434 22.658 11.362 22.2143 11.7304 21.9216L19.2418 15.8763C19.7916 15.4436 20.5548 15.4147 21.1352 15.8047L30.8511 22.4589C31.302 22.7548 31.574 23.2602 31.574 23.8024C31.574 24.3445 31.302 24.8499 30.8511 25.1457L21.4819 31.5582C20.8779 31.9705 20.0735 31.919 19.5263 31.4329ZM59.8743 41.5442L51.874 36.7528C51.2799 36.3945 50.5236 36.4671 50.0073 36.9319L40.2292 45.664C39.8167 46.0326 39.623 46.5899 39.7172 47.1372C39.8113 47.6844 40.1799 48.1436 40.6914 48.3508L54.2563 53.8498C54.4424 53.9271 54.6418 53.9667 54.843 53.9662C55.4726 53.9682 56.0441 53.596 56.3008 53.0169L60.5054 43.5952C60.8476 42.8496 60.5751 41.964 59.8743 41.5442V41.5442ZM60.9854 30.0895L63.0566 36.6094H63.0388C63.192 37.0972 63.105 37.6292 62.8046 38.0416C62.5042 38.454 62.0265 38.6972 61.5188 38.6962C61.2339 38.6972 60.9543 38.6198 60.7099 38.4723L55.1008 35.1138C54.6637 34.858 54.3783 34.4032 54.3363 33.8958C54.284 33.3861 54.4793 32.8824 54.8608 32.5434L58.4165 29.373C58.8181 29.0129 59.3732 28.8815 59.8921 29.0237C60.4108 29.172 60.8213 29.5721 60.9854 30.0895V30.0895ZM31.3133 47.1327C31.4089 46.5877 31.2171 46.0318 30.8066 45.664L21.0286 36.9319C20.5122 36.4671 19.7559 36.3945 19.1618 36.7528L11.1615 41.5442C10.4688 41.9658 10.1948 42.8402 10.5215 43.5862L14.735 53.0079C15.0841 53.7935 15.9866 54.1612 16.7795 53.8408L30.3355 48.3419C30.8471 48.1365 31.2171 47.6792 31.3133 47.1327ZM36.1135 49.8196L46.9939 54.2259C47.5258 54.4537 47.8934 54.9543 47.9539 55.5335C48.0228 56.1199 47.7624 56.6963 47.2783 57.0291L36.3891 64.597C36.1281 64.7804 35.8183 64.8803 35.5001 64.8836C35.1822 64.8786 34.8729 64.7789 34.6112 64.597L23.7309 57.0291C23.2449 56.6971 22.9814 56.1214 23.0464 55.5335C23.119 54.9482 23.4998 54.4482 24.0419 54.2259L34.9223 49.8196C35.3049 49.667 35.7309 49.667 36.1135 49.8196Z" fill="#BF4722"/>
<defs>
<filter id="filter0_d_6_42" x="0.749207" y="1.47" width="69.5016" height="74.5" filterUnits="userSpaceOnUse" color-interpolation-filters="sRGB">
<feFlood flood-opacity="0" result="BackgroundImageFix"/>
<feColorMatrix in="SourceAlpha" type="matrix" values="0 0 0 0 0 0 0 0 0 0 0 0 0 0 0 0 0 0 127 0" result="hardAlpha"/>
<feOffset dy="4"/>
<feGaussianBlur stdDeviation="2"/>
<feComposite in2="hardAlpha" operator="out"/>
<feColorMatrix type="matrix" values="0 0 0 0 0 0 0 0 0 0 0 0 0 0 0 0 0 0 0.25 0"/>
<feBlend mode="normal" in2="BackgroundImageFix" result="effect1_dropShadow_6_42"/>
<feBlend mode="normal" in="SourceGraphic" in2="effect1_dropShadow_6_42" result="shape"/>
</filter>
</defs>
</svg>
